<svg width="288" height="447.99999999999994" xmlns="http://www.w3.org/2000/svg">

 <g>
  <title>background</title>
  <rect fill="none" id="canvas_background" height="450" width="290" y="-1" x="-1"/>
 </g>
 <g>
  <title>Layer 1</title>
  <g stroke="null" id="svg_1" fill-rule="evenodd" fill="none">
   <path stroke="null" id="svg_2" fill="#ef7a6b" d="m117.944336,417.158404c-7.72676,0 -12.64195,-4.506424 -13.471262,-12.36072c-0.703904,-6.597779 -1.415898,-7.215389 -6.092409,-11.236244l-0.18609,-0.161856c-2.783252,-2.385253 -7.957349,-6.836305 -6.432224,-15.738409c0.113272,-0.655944 0.125408,-0.724095 -1.326899,-2.108393c-1.699078,-1.618564 -4.547057,-4.32753 -3.984743,-9.217298a3.559973,3.748254 0 0 0 0.032363,-0.698538c-0.416679,-0.242785 -1.326899,-0.553719 -1.957985,-0.779467c-2.95316,-1.035029 -8.446845,-2.95175 -9.749472,-10.461037c-1.007311,-5.784238 -3.475019,-7.539102 -6.602132,-9.766758c-3.163522,-2.248953 -7.492125,-5.332744 -7.492125,-12.748324c0,-0.89447 0.052591,-1.695233 0.09709,-2.398031c0.072818,-1.047807 0.101136,-1.644121 0.020227,-1.946537a0.643222,0.677241 0 0 1 -0.080908,-0.029816c-2.787297,-1.094661 -4.87069,-3.002863 -5.967,-8.731729c-1.254081,-6.589261 -3.301066,-8.846732 -6.387724,-12.262755c-2.087439,-2.300065 -4.449966,-4.911065 -6.856994,-9.115073c-3.932152,-6.874639 -3.175658,-18.553859 -2.847978,-21.969881c0.449042,-4.715134 0.327679,-4.800321 -2.763025,-6.959827c-3.394111,-2.368215 -6.407952,-8.425053 -3.754153,-17.693464c0.922357,-3.237129 0.606814,-3.91437 0.016182,-5.14959c-1.925622,-4.046411 -2.301846,-7.773368 1.05181,-16.155828c-1.654578,-4.928103 -5.81732,-18.894609 -4.365012,-30.603644c0.606814,-4.923843 2.390846,-8.416535 4.110151,-11.798482c2.912705,-5.707569 5.922501,-11.619588 4.373103,-27.217437c-1.007311,-10.175658 6.375588,-21.007261 9.923425,-26.212224c0.258907,-0.374825 -0.271043,-1.891165 -0.740313,-3.224351c-0.881902,-2.525812 -2.09553,-5.988688 -1.152946,-9.932874c0.659404,-2.764338 1.941804,-4.39568 2.872251,-5.588306c1.072037,-1.37578 1.917531,-2.461922 2.370618,-6.444442c3.195885,-28.060795 11.715548,-44.467926 15.231021,-50.218089c2.52839,-4.131598 6.763949,-7.730774 10.611147,-10.09473c-4.988008,-8.488944 -7.200855,-21.377828 -4.409512,-25.769248a5.291415,5.571269 0 0 1 4.356922,-2.555628c0.821221,-3.279722 2.346346,-7.121683 5.129598,-11.006238c0.752449,-1.052067 3.038113,-4.250861 6.537405,-4.250861c3.426474,0 5.809229,2.645075 7.079492,7.854296c2.66998,10.976422 2.847978,17.902174 3.074522,26.672237c0.0445,1.776161 0.088999,3.586398 0.161817,5.515897c5.691912,0.971139 11.391914,3.803626 15.053023,7.645587c2.394891,2.517293 3.661109,5.28589 3.657063,8.011894c-0.008091,2.576925 -1.820441,5.179406 -5.283324,5.179406c-1.666715,0 -3.5802,-0.596313 -6.003409,-1.354483c-0.687722,-0.212969 -1.468489,-0.460013 -2.24521,-0.681501c0.792903,1.976352 1.233854,4.549018 -0.525905,7.019458c-0.849539,1.179848 -2.524345,2.589703 -5.683821,2.589703c-0.533996,0 -1.088219,-0.038334 -1.654578,-0.102225c0.525905,0.907248 0.853584,1.950796 0.853584,3.181757c0,2.483218 -1.173173,4.238083 -2.62548,5.524416c2.52839,0.494088 5.299505,1.823015 5.299505,5.673494c0,2.913416 -1.820441,4.727912 -3.810789,6.039801c1.699078,0.310935 3.564019,0.82206 5.420868,1.793199c2.540526,1.333186 4.182968,3.961223 4.292195,6.87038c0.109226,2.990085 -1.38758,5.754422 -4.00497,7.398543c-1.29049,0.813542 -1.504898,1.282073 -1.508943,1.290592c0,0 -0.036409,0.281119 0.206317,0.996695c0.687722,2.018946 1.254081,3.475654 1.804259,4.885509c0.639177,1.631342 1.298581,3.322316 2.05103,5.686272c1.221718,3.837701 0.355997,6.269807 -0.582541,7.637068a5.825411,6.133507 0 0 1 -1.456353,1.490783c4.72101,6.005726 2.904614,10.435481 1.395671,12.543874c-1.804259,2.517293 -1.804259,2.960269 -1.804259,3.56936c0,2.06154 1.355217,4.625687 2.791343,7.338912c2.609298,4.928103 5.853729,11.06161 2.860115,18.276999c-4.526829,10.904012 -6.217817,17.910692 -2.216892,23.682152c2.860115,4.114561 4.866645,4.408458 7.831941,4.408458c1.039674,0 2.229029,-0.063891 3.487155,-0.1363c1.589852,-0.085188 3.398156,-0.187413 5.408732,-0.187413c1.962031,0 3.822926,0.097966 5.687866,0.298157c4.227468,0.434457 9.373247,2.726003 14.353164,4.932362c4.38524,1.946537 9.357066,4.152895 11.897592,4.152895a2.042939,2.150987 0 0 0 0.392406,-0.029816a19.547489,20.581324 0 0 1 9.822289,-2.781375c3.131158,0 5.906319,0.766688 8.131302,1.388558c1.448262,0.400382 2.819661,0.783726 3.725835,0.783726c0.396452,0 0.533996,-0.076669 0.578496,-0.102225c3.851244,-2.150987 7.411217,-3.194535 10.8741,-3.194535c4.267922,0 7.581125,1.618564 10.238968,2.917675c2.05103,1.000954 3.665154,1.793199 5.327823,1.793199c0.355997,0 0.703904,-0.034075 1.067992,-0.106484c1.52917,-0.298157 3.066431,-0.447235 4.571329,-0.447235c6.355361,0 12.431588,2.730262 17.565231,7.89689c0.752449,0.75391 1.05181,0.766688 1.363308,0.766688l0.008091,0c0.444997,0 1.067992,-0.106484 1.788077,-0.221488a26.262893,27.651894 0 0 1 4.138469,-0.400382c1.318808,0 2.601208,0.14056 3.924061,0.430197c6.990493,1.533377 9.478428,6.265548 11.124916,9.396192c1.355217,2.585444 1.779987,3.16046 3.155431,3.416023l1.124628,0.20445c9.122431,1.665418 10.781055,2.513034 13.463171,10.435481l0.202271,0.583535c0.311498,0.920026 1.072037,1.473745 2.86416,2.60674c2.455572,1.550414 6.169272,3.893073 6.901493,9.417489c0.28318,2.142468 0.95472,2.832488 2.176438,4.089005c1.43208,1.465227 3.398156,3.484173 3.964516,7.334652c0.837403,5.639419 -0.169908,8.531538 -0.90213,10.639931c-0.52186,1.503561 -0.695813,2.010427 0,4.208267c2.374664,7.496509 -0.71604,15.623405 -2.76707,19.806116c-2.629526,5.366819 -7.577079,12.22868 -12.823994,13.928172c-7.471898,2.419328 -8.851388,7.147239 -8.552026,8.203566c3.183749,8.348385 0.679631,16.603063 -7.674169,25.215529c-2.184529,2.248953 -2.127893,4.131598 -1.820441,7.530584c0.190135,2.176543 0.408588,4.642724 -0.558269,7.07483c-1.468489,3.692882 -4.543011,5.0857 -6.573814,6.009985c-2.164302,0.979657 -2.172393,1.073364 -2.233074,1.959315c-0.080908,1.265036 0.153726,3.164719 0.408588,5.170887c0.752449,5.950354 1.889213,14.937645 -5.33996,19.648519c-3.009795,1.967833 -3.110931,2.589703 -3.487155,4.915324c-0.295316,1.840052 -0.703904,4.361605 -2.301846,7.581696a12.310225,12.961293 0 0 1 -10.942872,6.955567c-4.05756,0 -7.848123,-2.053021 -10.408876,-5.6309c-2.912705,-4.067708 -3.066431,-8.080044 -3.175658,-11.010497c-0.121363,-3.151941 -0.250816,-3.518248 -1.537261,-4.297714c-6.553587,-3.974001 -6.302771,-13.587422 -6.076227,-22.063588c0.14159,-5.388116 0.323634,-12.096639 -1.557488,-14.132622c-4.150605,-4.514943 -4.563238,-11.794223 -4.963735,-18.826459c-0.420724,-7.385765 -0.922357,-12.671655 -3.551882,-13.434084a5.967,6.282585 0 0 0 -1.634351,-0.242785c-3.357702,0 -6.525269,3.352132 -9.320657,6.308142c-2.706389,2.870822 -5.259051,5.579788 -8.657207,5.579788c-1.262172,0 -3.665154,-0.425938 -5.57864,-3.279722c-0.635132,-0.954101 -1.05181,-1.30763 -1.221718,-1.422633c-0.707949,0.183153 -2.427254,1.546155 -3.592336,2.461922c-2.00653,1.593008 -4.284104,3.390466 -7.132082,4.659762c-1.436126,0.638907 -2.96125,0.96262 -4.526829,0.96262c-3.72179,0 -6.703268,-1.810236 -8.305255,-2.785634l-0.177999,-0.106484c-2.261392,-1.363002 -3.248475,-1.363002 -3.572109,-1.363002c-0.562314,0 -1.165082,0.170375 -1.994394,0.400382c-0.85763,0.238525 -1.852804,0.519644 -3.05025,0.681501c1.104401,2.640816 1.852804,5.801275 1.33499,10.124546c-0.392406,3.301019 -1.666715,5.417931 -2.597162,6.964086c-0.756494,1.256517 -1.019447,1.686714 -0.942584,2.555628c0.28318,0.212969 0.691768,0.498347 0.995174,0.702798c2.087439,1.435411 5.979137,4.110302 5.979137,9.698608c0,3.224351 -1.61817,5.609603 -2.924842,7.522065c-0.47736,0.702798 -1.274309,1.874127 -1.326899,2.300065c0.004045,0.396122 0.675586,1.43967 1.165082,2.206359c1.444216,2.244693 4.449966,6.917233 0.444997,12.173308c-0.036409,0.724095 0.873812,2.798413 1.423989,4.05067c0.291271,0.660204 0.586586,1.333186 0.865721,2.018946c1.974167,4.821618 2.002485,9.447305 0.080908,13.033702c-1.674806,3.117866 -4.712919,5.15385 -8.556072,5.728866a29.984683,31.570524 0 0 1 -4.203196,0.34501"/>
   <path stroke="null" id="svg_3" fill="#030D54" d="m104.873571,51.563053c4.518739,2.321362 7.864304,5.69905 7.860259,8.684876c0,0.455754 -0.347906,0.634648 -0.938538,0.634648c-2.305892,0 -8.30121,-2.760078 -11.804547,-2.760078c-1.181264,0 -2.079348,0.319453 -2.451527,1.162811c-1.112492,2.513034 3.657063,6.090913 2.002485,8.399497c-0.404542,0.562238 -1.1934,0.766688 -2.204756,0.766688c-2.904614,0 -7.653942,-1.71653 -10.412921,-1.71653c-1.05181,0 -1.820441,0.251303 -2.079348,0.949842c-1.229809,3.339354 7.350535,5.601085 7.350535,8.399497c0,3.36491 -7.350535,4.199749 -7.350535,7.00242c0,4.425496 10.020515,1.397077 10.020515,4.199749c0,2.798413 -8.669344,4.267899 -8.009939,7.696699c0.66345,3.50121 6.67495,1.401336 12.018955,4.204008c2.350391,1.230961 2.710434,4.595871 0,6.299623c-3.34152,2.099874 -4.300286,4.344567 -3.163522,7.705218c1.52917,4.523461 2.496027,6.291104 3.831017,10.495112c0.946629,2.968788 0,4.199749 -1.33499,4.199749c-2.750888,0 -3.34152,2.099874 0,6.299623c2.14812,2.700447 2.779206,4.979215 1.33499,6.998161c-2.002485,2.802672 -2.66998,4.199749 -2.66998,6.299623c0,7.82874 9.660472,15.005795 6.0115,23.801415c-4.300286,10.350293 -7.415262,20.002048 -1.747623,28.167279c3.689427,5.319965 6.986447,6.291104 11.343369,6.291104c2.520299,0 5.388505,-0.323713 8.891842,-0.323713c1.610079,0 3.357702,0.06815 5.259051,0.268341c7.423353,0.775207 20.08553,9.115073 26.683617,9.115073c0.962811,0 1.792123,-0.178894 2.459618,-0.579276a15.279566,16.087678 0 0 1 7.755078,-2.236174c4.696737,0 8.616753,2.172284 11.857138,2.172284c0.930448,0 1.800214,-0.178894 2.617389,-0.638907c3.507383,-1.959315 6.367497,-2.657853 8.831161,-2.657853c6.371543,0 10.11356,4.715134 15.574882,4.715134c0.594677,0 1.213627,-0.059631 1.860895,-0.183153c1.310717,-0.255563 2.568844,-0.374825 3.770335,-0.374825c6.492905,0 11.35146,3.398985 14.563526,6.627595c1.585806,1.597267 2.945069,2.031724 4.377149,2.031724c1.707169,0 3.511428,-0.61761 5.926546,-0.61761c0.914266,0 1.913486,0.085188 3.034068,0.332232c9.555291,2.099874 6.897448,11.457732 14.417891,12.84203c9.506746,1.746346 9.11434,1.397077 11.44855,8.271716c1.86494,5.486081 8.72598,4.834396 9.559337,11.116981c0.906175,6.836305 5.39255,6.38907 6.149044,11.500326c1.351172,9.115073 -3.034068,8.305791 -0.728176,15.585071c0.485451,1.533377 0.647268,3.203054 0.594677,4.915324c-2.621435,8.058747 -7.72676,17.050298 -15.02875,23.724746c-8.624844,3.518248 -10.882191,10.243809 -9.628109,13.53205c0.946629,2.487478 1.1934,4.915324 0.833357,7.326133c-0.578496,1.712271 -1.124628,3.407504 -1.650533,5.0857c-1.302627,2.598222 -3.268703,5.209222 -5.865865,7.888372c-5.813274,5.992947 -1.779987,12.190345 -3.34152,16.100456c-1.832577,4.60013 -8.68148,2.798413 -9.126477,9.396192c-0.412633,6.061098 3.891698,16.858626 -2.896524,21.284121c-7.439535,4.851434 -3.895743,7.313355 -7.34649,14.251885a7.949258,8.369681 0 0 1 -7.091628,4.510683c-2.496027,0 -5.072962,-1.205405 -6.937902,-3.807886c-4.611783,-6.448701 0.376224,-12.650358 -6.0115,-16.517875c-8.212211,-4.983474 -0.060681,-28.218392 -6.67495,-35.416744c-3.992833,-4.344567 -3.377929,-13.894097 -4.191059,-21.748394l-0.372179,-4.706615c-1.213627,-14.997277 -4.05756,-23.511777 -6.711358,-23.277511c-2.127893,0.191672 -3.462883,5.988688 -3.305111,15.947118c-7.904758,1.094661 -12.945357,11.777185 -16.679283,11.777185c-0.720085,0 -1.391626,-0.400382 -2.022712,-1.345964c-1.642442,-2.449143 -3.163522,-3.373429 -4.688646,-3.373429c-3.596382,0 -7.221082,5.145331 -12.508451,7.496509c-0.970902,0.434457 -1.921576,0.609091 -2.831797,0.609091c-2.66998,0 -4.996099,-1.490783 -6.310861,-2.287287c-2.504117,-1.51208 -4.263877,-1.976352 -5.744502,-1.976352c-0.906175,0 -1.707169,0.187413 -2.508163,0.404641c-3.693472,-9.106554 -9.531019,-16.837329 -11.472822,-16.232497c-2.19262,0.69002 1.104401,12.36072 4.061606,21.782469l0.295316,-0.06815c1.549397,3.130644 2.313983,3.390466 1.606033,9.311004c-0.631086,5.29015 -4.445921,6.086654 -3.398156,11.576994c0.586586,3.066754 6.796312,3.565101 6.796312,8.902104c0,3.543804 -4.247695,6.239992 -4.247695,9.796574c0,4.489386 5.950819,7.130202 2.548617,11.585513c-2.24521,2.938972 0.040454,6.614817 1.699078,10.686784c2.548617,6.231473 0.853584,11.576994 -5.097234,12.467205c-1.189355,0.178894 -2.402982,0.298157 -3.588291,0.298157c-4.43783,0 -8.454936,-1.682455 -9.162885,-8.314309c-0.845494,-8.016153 -2.253301,-9.604902 -7.645851,-14.247626c-2.580981,-2.223396 -6.201635,-5.15385 -5.097234,-11.585513c1.05181,-6.124988 -5.894183,-6.222954 -5.275233,-11.585513c1.023492,-8.893585 -10.024561,-3.548063 -11.719593,-13.293525c-1.974167,-11.372544 -9.35302,-11.832557 -12.536769,-16.432688l-1.072037,-2.257471a9.526973,10.03084 0 0 1 -0.416679,-3.011382c0,-2.798413 0.667495,-4.898287 -0.667495,-6.998161c-1.852804,-2.913416 -4.00497,0 -5.33996,-7.00242c-1.868986,-9.75398 -5.647412,-12.105158 -9.903198,-17.24197l-5.946773,-12.488502c-0.598723,-4.140117 -0.52186,-8.761544 -0.18609,-12.267014c0.667495,-7.00242 -0.667495,-8.399497 -4.67651,-11.202169c-2.002485,-1.397077 -4.00497,-5.601085 -2.002485,-12.599246c3.276793,-11.457732 -5.501777,-5.886463 1.581761,-22.472488c0,0 -6.367497,-16.973629 -4.733146,-30.156409c1.456353,-11.764407 11.088507,-14.004841 8.499436,-40.080765c-0.837403,-8.416535 5.793047,-18.187552 9.134567,-23.085839c2.957205,-4.344567 -2.548617,-9.102295 -1.213627,-14.69912c1.076083,-4.514943 4.348831,-3.863258 5.344005,-12.607764c2.686162,-23.614002 9.348975,-39.744274 14.575663,-48.292849c3.398156,-5.56275 10.574738,-9.941393 13.802987,-10.861419c-6.796312,-6.231473 -9.344929,-22.259519 -7.645851,-24.93441c0.242725,-0.374825 0.513769,-0.532422 0.809085,-0.532422c1.496807,0 3.43861,4.097523 3.43861,4.097523s-1.128673,-8.224863 5.097234,-16.922516c1.124628,-1.575971 2.152166,-2.427847 3.066431,-2.427847c1.156991,0 2.127893,1.37578 2.872251,4.425496c3.410292,14.034657 2.560753,21.15634 3.276793,35.254887c1.423989,0 2.860115,0.212969 4.288149,0.511126m186.332229,229.806322l0.161817,-0.477051c1.027538,-2.95175 2.042939,-6.627595 1.116537,-12.897402c-0.792903,-5.345522 -3.6692,-8.305791 -5.218597,-9.886021c-0.295316,-0.306675 -0.699858,-0.724095 -0.796949,-0.868913c0.004045,0 -0.060681,-0.174635 -0.117317,-0.596313c-1.011356,-7.675403 -6.185453,-10.933828 -8.960614,-12.692952a27.185249,28.623033 0 0 1 -1.205536,-0.783726l-0.008091,-0.025556c-1.254081,-3.714179 -2.447482,-7.223908 -5.971046,-9.826389c-2.856069,-2.112652 -5.861819,-2.657853 -10.841736,-3.56936l-0.558269,-0.102225a30.898948,32.533143 0 0 1 -0.66345,-1.23522c-1.779987,-3.381948 -5.097234,-9.690089 -14.037621,-11.653663a23.342096,24.576622 0 0 0 -4.814055,-0.523904a30.449906,32.060352 0 0 0 -4.947554,0.477051c-5.821365,-5.579788 -12.690495,-8.51876 -19.919668,-8.51876c-1.763805,0 -3.568064,0.170375 -5.360187,0.523904a1.37949,1.452449 0 0 1 -0.275089,0.029816c-0.695813,0 -2.055075,-0.664463 -3.491201,-1.367261c-2.888433,-1.409855 -6.836767,-3.347873 -12.079636,-3.347873c-3.891698,0 -7.815759,1.052067 -11.958273,3.215832c-0.578496,-0.127781 -1.43208,-0.362047 -2.10362,-0.553719c-2.467709,-0.681501 -5.542231,-1.533377 -9.243794,-1.533377c-3.754153,0 -7.386944,0.920026 -10.8296,2.738781c-2.144075,-0.417419 -6.735631,-2.453403 -9.587655,-3.722698c-5.279278,-2.342659 -10.736555,-4.761987 -15.615337,-5.273112c-2.010576,-0.212969 -4.013061,-0.310935 -6.124772,-0.310935c-2.123848,-0.004259 -3.992833,0.102225 -5.635276,0.191672c-1.250036,0.06815 -2.330164,0.127781 -3.256566,0.127781c-2.063166,0 -2.556708,0 -4.320513,-2.53859c-2.467709,-3.556582 -1.788077,-8.399497 2.686162,-19.188506c3.847198,-9.27267 -0.299361,-17.109929 -3.042159,-22.297854c-0.728176,-1.380039 -1.889213,-3.56936 -2.180484,-4.702355c0.169908,-0.268341 0.444997,-0.668723 0.865721,-1.269295c1.601988,-2.236174 4.474239,-7.76059 0.622995,-14.929126c1.156991,-2.065799 2.318028,-5.728866 0.667495,-10.908272a81.037933,85.323897 0 0 0 -2.156211,-5.984429a117.843201,124.075735 0 0 1 -0.95472,-2.483218a11.962319,12.594986 0 0 0 4.640101,-8.693394c0.81313,0.097966 1.690987,0.166116 2.690207,0.161856c8.980841,-0.063891 23.548413,-3.543804 29.280779,-10.103249c1.901349,-2.172284 1.468489,-6.917233 -0.384315,-10.09899c-0.978993,-1.678196 1.456353,-6.563704 -1.893258,-8.85951c-6.084318,-4.157155 -12.091772,-7.726515 -18.803131,-9.779536c0.752449,-1.392817 1.217673,-2.973047 1.221718,-4.702355c0.004045,-2.768597 -0.845494,-6.955567 -4.923281,-11.236244a28.059061,29.543059 0 0 0 -6.424133,-4.928103l15.712427,-25.241085c1.318808,-2.317103 1.472534,-4.634205 0.420724,-6.367773c-0.906175,-1.495042 -2.597162,-2.304325 -4.409512,-2.116912c-7.411217,0.694279 -16.917963,6.665929 -20.154302,11.338469c-0.080908,0.123522 -0.145635,0.264082 -0.226544,0.383344a97.583717,102.744761 0 0 0 -2.079348,-10.810306c-2.3868,-9.813611 -8.090848,-11.278838 -11.282687,-11.287357c-3.762244,0 -7.132082,2.044502 -10.012424,6.073876a34.766374,36.605111 0 0 0 -5.077007,9.881761a9.842517,10.363071 0 0 0 -4.551102,3.888814c-2.451527,3.854739 -2.629526,10.069174 -0.538041,18.47719c0.533996,2.150987 1.428035,5.162368 2.831797,8.297272c-3.212067,2.444884 -6.331089,5.554231 -8.535845,9.157667c-3.67729,6.018504 -12.589359,23.141211 -15.882335,52.13481c-0.307452,2.666372 -0.631086,3.083791 -1.423989,4.097523c-1.059901,1.354483 -2.827751,3.616214 -3.72179,7.368727c-1.266218,5.302928 0.271043,9.698608 1.294536,12.603505l0.202271,0.596313c-4.085878,6.090913 -10.712283,16.875663 -9.628109,27.741341c1.407808,14.21781 -1.165082,19.265175 -3.883607,24.610697c-1.820441,3.565101 -3.883607,7.607252 -4.595602,13.353156c-1.440171,11.623848 2.034848,24.772553 4.037333,31.076435c-3.236339,8.842473 -2.564799,13.544828 -0.303407,18.298296l0.080908,0.170375a10.558557,11.116981 0 0 1 -0.364088,1.639861c-1.367353,4.757727 -1.57367,9.200261 -0.614904,13.221115c0.922357,3.867517 2.932932,7.066311 5.643366,9.157667c0.088999,8.488944 1.711214,13.161484 -4.967781,16.671213c-6.954084,3.654548 -3.313202,9.903058 -8.49539,14.247626c-4.247695,3.565101 -8.49539,2.674891 -10.194468,7.125943c-2.467709,6.45722 2.605253,9.732683 -3.406247,16.032306c-4.247695,4.451052 -5.946773,8.016153 -5.946773,12.467205c0,7.125943 6.796312,8.902104 9.348975,17.812727c2.487936,8.701913 -1.456353,9.221557 2.548617,16.922516c5.097234,9.796574 11.226052,3.726957 12.747131,8.902104c1.674806,5.707569 4.866645,8.58265 8.252665,9.511195c0.444997,0.82632 0.825266,1.541896 1.09631,2.070059c1.982258,3.884554 8.819024,13.770575 12.055363,18.315333c2.742797,3.863258 5.020371,7.364468 9.506746,6.985383c2.823706,-0.242785 5.206461,-3.083791 5.39255,-6.32092c0.093045,-1.673936 -0.841448,-10.733637 -1.027538,-13.174262c-0.444997,-5.805535 -4.466148,-7.939484 -10.032651,-7.466693l-0.550178,0.042594l-3.697518,-7.232427c2.617389,-5.750163 0.501633,-12.394795 -4.846418,-15.197467c-4.935417,-2.581184 -3.398156,-5.341262 -0.849539,-10.691043c2.536481,-5.315706 -5.517958,-8.207825 -3.43861,-12.467205c1.739532,-3.556582 6.383679,-2.227656 11.084462,-0.885951c7.293899,2.082837 9.555291,-1.341705 11.169416,-4.148636c2.026757,3.450098 4.903054,5.554231 6.974311,7.027977c2.807524,1.997649 4.089924,2.909156 4.7736,6.815008c1.585806,9.170445 7.957349,12.237198 11.578003,13.583162c0.428815,5.106996 3.491201,8.271716 5.161961,9.873243c-0.99922,10.350293 5.380414,15.836374 8.187938,18.251443l0.18609,0.157597c1.646488,1.418373 3.163522,2.755819 3.592336,3.50547c0.355997,0.630388 0.675586,2.214878 0.938538,4.719393c1.092264,10.273624 7.738896,16.411391 17.791775,16.411391c0.271043,0 0.566359,-0.029816 0.841448,-0.042594c0.072818,3.961223 -1.084174,8.471907 -2.827751,9.396192c-2.346346,1.252258 -6.715404,3.403245 -7.411217,8.850991c-0.444997,3.526767 1.941804,6.670189 5.020371,6.670189c4.571329,0 8.819024,-0.174635 13.2164,-0.174635c4.543011,0 10.894327,-4.263639 10.898372,-9.719905c0,-3.258426 -3.774381,-15.018573 -5.63123,-20.087235c0.934493,-0.979657 1.771896,-2.05728 2.435345,-3.292501c2.597162,-4.842915 2.641662,-10.904012 0.125408,-17.054557c-0.307452,-0.75817 -0.614904,-1.452449 -0.91022,-2.12969a72.121819,75.936224 0 0 1 -0.61895,-1.431152a12.136272,12.77814 0 0 0 1.266218,-9.178964c-0.550178,-2.491737 -1.674806,-4.39568 -2.589071,-5.83535c1.407808,-2.070059 3.559973,-5.413672 3.559973,-9.903058c0,-6.163323 -3.272748,-9.851946 -5.865865,-11.973117c0.938538,-1.712271 2.00653,-4.12308 2.394891,-7.381505a22.986099,24.201796 0 0 0 -0.080908,-6.955567c0.230589,0.115003 0.525905,0.2726 0.881902,0.489829l0.173953,0.102225c1.820441,1.103179 5.594821,3.398985 10.481694,3.398985c2.152166,0 4.247695,-0.447235 6.229953,-1.328927c3.333429,-1.490783 5.946773,-3.552323 8.050394,-5.209222l0.177999,-0.149078a10.752737,11.321432 0 0 0 7.593261,3.301019c5.206461,0 8.68148,-3.680104 11.743866,-6.925752c1.47658,-1.563192 3.790562,-4.008076 5.408732,-4.74069c0.865721,10.946606 1.355217,20.010567 3.822926,23.792896c0.849539,2.521553 2.05103,4.881249 3.847198,6.895936c0.768631,1.767643 0.606814,7.786146 0.525905,11.048831c-0.242725,9.025626 -0.542087,20.202239 7.568988,25.701098l0.040454,0.971139c0.121363,3.126385 0.088999,8.356903 3.814835,13.561865c1.682896,2.351178 5.906319,4.204008 5.906319,5.473303l0,7.509287c0,3.931408 -0.978993,4.25938 -3.470974,5.609603c-4.085878,2.206359 -7.297945,4.655502 -7.297945,9.370636c0,2.968788 2.568844,5.690531 5.63123,6.142026c1.585806,0.234266 10.679919,-0.008519 13.014129,-0.008519c5.554367,0 8.305255,-4.020855 8.305255,-9.881761l0,-18.528302c4.045424,-1.605786 5.485595,-4.229564 7.184673,-7.641327c1.913486,-3.854739 2.224983,-6.908714 2.548617,-8.92766c0.040454,-0.255563 0,-0.557979 0.040454,-0.796504c0.222498,-0.200191 0.590632,-0.536682 1.322854,-1.009473c1.436126,-0.941323 2.601208,-2.006168 3.5802,-3.151941c0.772676,0.238525 1.444216,0.063891 1.788077,-0.61761l0.020227,0.379085l0.012136,0.20871c0.008091,0.166116 0.020227,0.336491 0.040454,0.502607c0.008091,0.183153 0.028318,0.362047 0.048545,0.540941c0.004045,0.042594 -0.970902,0.085188 -0.962811,0.1363c0.732222,6.090913 4.603692,11.189391 8.649116,13.612978l0,14.055954c0,3.935667 -0.230589,4.267899 -2.718525,5.613863c-4.085878,2.206359 -6.917675,4.655502 -6.917675,9.370636c0,2.968788 2.750888,5.690531 5.813274,6.142026c1.585806,0.234266 10.01647,-0.008519 12.354725,-0.008519c5.558413,0 7.649897,-4.020855 7.649897,-9.881761l0,-26.084442c4.045424,-2.938972 8.06253,-8.390978 8.179847,-14.656526c0,-0.076669 -0.088999,-0.157597 -0.088999,-0.234266l0,-0.115003c0,-0.055372 0.47736,-0.106484 0.47736,-0.161856c-0.012136,-2.376734 -0.234635,-4.642724 -1.072037,-6.695745c-0.776721,-1.916721 -0.465224,-4.11882 0.525905,-5.924797c0.970902,-1.767643 2.055075,-3.63751 2.115757,-6.45296c0.133499,-6.461479 -3.701563,-9.583605 -3.701563,-13.451122c0,-6.329438 3.826971,-7.253724 4.801918,-14.652267c0.606814,-4.60013 -0.182044,-7.730774 -2.24521,-13.515012c-1.678851,-4.710874 1.213627,-7.130202 2.500072,-11.168094c1.011356,-3.173238 0.404542,-7.185574 -0.606814,-10.597337c2.641662,-2.981566 4.858554,-6.504073 6.44436,-9.724164c4.077787,-8.314309 5.15387,-16.594544 3.025977,-23.315845a9.223567,9.711386 0 0 1 -0.202271,-0.741132"/>
   <path stroke="null" id="svg_4" fill="#FFF" d="m114.73227,73.430709c0,2.704706 -2.091484,4.898287 -4.672465,4.898287a4.664374,4.911065 0 0 1 -4.672465,-4.898287c0,-2.704706 2.09553,-4.898287 4.672465,-4.898287c2.585026,0 4.672465,2.193581 4.672465,4.898287"/>
   <path stroke="null" id="svg_5" fill="#030D54" d="m254.250852,267.138786c-0.906175,0.004259 -1.695033,1.661158 -2.398936,4.250861c-0.699858,2.598222 -1.359262,6.124988 -1.982258,10.03084c-0.627041,3.901592 -1.108446,7.462434 -1.254081,10.154362c-0.14159,2.691928 0.084954,4.527721 0.942584,4.842915c0.837403,0.306675 2.156211,-0.996695 3.470974,-3.484173c1.314763,-2.483218 2.576935,-6.163323 3.256566,-10.384368c0.67154,-4.216786 0.627041,-8.135416 0.161817,-10.929569c-0.465224,-2.802672 -1.310717,-4.485127 -2.196665,-4.480868m-13.669488,34.735243c-1.820441,-0.017038 -3.333429,7.445396 -4.571329,16.55621c-1.197445,9.115073 -1.695033,16.726585 0.056636,17.233451c0.861675,0.234266 2.127893,-1.414114 3.357702,-4.344567c1.229809,-2.934713 2.3868,-7.164277 3.030023,-11.943301c0.635132,-4.783284 0.627041,-9.183223 0.214407,-12.352202c-0.412633,-3.181757 -1.197445,-5.128293 -2.087439,-5.14959m-63.804427,-59.997625c-0.052591,-0.949842 -2.018667,-1.644121 -5.05678,-2.125431c-3.034068,-0.498347 -7.095674,-0.783726 -11.246279,-1.618564a38.795616,40.847453 0 0 1 -10.056924,-3.560842c-2.475799,-1.277814 -4.081833,-2.427847 -4.854509,-1.882646c-0.364088,0.268341 -0.440951,0.945582 -0.157772,1.959315c0.28318,1.005214 0.978993,2.312843 2.135984,3.684364c1.1489,1.37578 2.783252,2.755819 4.781691,3.910111a24.106682,25.381645 0 0 0 6.909584,2.581184a31.594761,33.265757 0 0 0 12.670268,-0.255563c3.10284,-0.75817 4.923281,-1.763383 4.874736,-2.691928m-95.997911,-115.467529c-1.699078,0.613351 -1.897304,4.685318 -0.440951,9.098035c1.456353,4.408458 4.013061,7.48373 5.708093,6.87038c1.699078,-0.61761 1.897304,-4.685318 0.440951,-9.098035s-4.013061,-7.48799 -5.708093,-6.87038m6.792267,68.605831c0.800994,0.404641 1.970121,-0.119263 3.094749,-1.503561c1.120582,-1.363002 2.144075,-3.616214 2.52839,-6.261288c0.38027,-2.640816 0.0445,-5.106996 -0.639177,-6.763895c-0.679631,-1.669677 -1.650533,-2.53859 -2.52839,-2.40229c-0.898084,0.14056 -1.553443,1.192626 -2.063166,2.662112c-0.509723,1.478005 -0.898084,3.381948 -1.201491,5.481822c-0.307452,2.095615 -0.473315,4.033633 -0.408588,5.605344c0.072818,1.558933 0.400497,2.768597 1.217673,3.181757m18.665586,178.996179c1.747623,-0.366307 2.293755,-5.196443 0.57445,-10.588818c-1.71526,-5.396634 -4.91519,-8.919141 -6.525269,-8.114119c-1.634351,0.813542 -1.217673,5.307187 0.351952,10.269365c1.585806,4.957918 3.826971,8.816916 5.598867,8.433572m-19.482762,-37.427171c0.837403,-0.293897 1.019447,-2.487478 0.400497,-5.784238c-0.61895,-3.292501 -2.091484,-7.675403 -4.449966,-12.126454c-2.362528,-4.446793 -5.133643,-8.071525 -7.479989,-10.358812c-2.346346,-2.291546 -4.215332,-3.279722 -4.899008,-2.696187c-0.699858,0.609091 -0.109226,2.657853 1.1934,5.554231c1.310717,2.896378 3.292975,6.665929 5.501777,10.818825c2.196665,4.148636 4.207241,7.905409 5.861819,10.605856c1.658624,2.683409 3.009795,4.293455 3.871471,3.98678m107.009555,-53.43818c-0.364088,-0.877432 -2.512208,-0.796504 -5.704048,-0.195931c-3.195885,0.604832 -7.451671,1.686714 -12.136272,2.909156c-4.688646,1.213923 -8.932296,2.342659 -12.027046,3.369169c-3.090704,1.026511 -5.028462,2.010427 -4.95969,2.960269c0.064727,0.928545 2.160256,1.644121 5.542231,1.818755c3.373884,0.178894 8.030167,-0.242785 13.010084,-1.533377c4.975872,-1.294851 9.280203,-3.194535 12.184817,-5.009031c2.912705,-1.810236 4.445921,-3.471395 4.089924,-4.319011m-46.777238,30.062703c-0.177999,-0.954101 -1.646488,-1.465227 -3.648972,-2.087096c-0.501633,-0.161856 -1.043719,-0.310935 -1.610079,-0.506866c-0.570405,-0.157597 -1.161037,-0.391863 -1.784032,-0.587794a55.398036,58.327948 0 0 1 -3.91597,-1.588749c-1.347126,-0.647426 -2.589071,-1.337445 -3.733926,-2.001909c-0.554223,-0.357788 -1.116537,-0.660204 -1.606033,-1.005214c-0.517814,-0.310935 -0.983038,-0.634648 -1.43208,-0.920026c-1.775941,-1.150033 -3.123067,-1.959315 -3.91597,-1.460967c-0.748403,0.451494 -0.756494,2.278768 0.505678,4.693837c0.315543,0.596313 0.695813,1.23522 1.185309,1.844311c0.461178,0.643166 1.039674,1.243739 1.662669,1.874127a18.528042,19.50796 0 0 0 4.67651,3.198794c1.824486,0.843357 3.685381,1.324667 5.396596,1.524858a15.089431,15.887487 0 0 0 4.543011,-0.247044c2.556708,-0.621869 3.851244,-1.844311 3.67729,-2.726003m75.706064,40.31929c-1.76785,-0.332232 -4.599647,7.560399 -6.322998,17.633833c-1.727396,10.064915 -1.690987,18.494227 0.076863,18.826459c1.76785,0.332232 4.599647,-7.560399 6.322998,-17.625314c1.727396,-10.069174 1.690987,-18.502746 -0.076863,-18.834978m-12.063454,3.620473c1.695033,-0.702798 0.129454,-9.008588 -2.374664,-18.920165c-2.540526,-9.898799 -5.133643,-17.914952 -6.933857,-17.633833c-0.877857,0.144819 -1.371399,2.385253 -1.326899,5.920538c0.0445,3.518248 0.66345,8.322828 1.974167,13.472419c1.310717,5.145331 3.062386,9.638977 4.696737,12.718508c1.638397,3.083791 3.131158,4.770505 3.964516,4.438274m-156.23832,-172.837116c-0.849539,0.2726 -2.030803,-0.796504 -3.119022,-2.870822c-1.092264,-2.065799 -2.05103,-5.145331 -2.423209,-8.65506c-0.372179,-3.509729 -0.076863,-6.738339 0.550178,-9.004329c0.631086,-2.270249 1.557488,-3.586398 2.443436,-3.518248c0.906175,0.072409 1.606033,1.473745 2.156211,3.603435c0.550178,2.133949 0.983038,5.000512 1.314763,8.165231c0.339816,3.168979 0.517814,6.065357 0.428815,8.271716c-0.093045,2.206359 -0.481405,3.731217 -1.351172,4.008076m7.702487,-43.645865c0.91022,-0.076669 1.545352,-2.001909 2.09553,-4.957918c0.546132,-2.960269 1.072037,-6.951308 1.707169,-11.342729c0.643222,-4.387161 1.278354,-8.356903 1.601988,-11.355507c0.311498,-2.990085 0.258907,-5.026068 -0.586586,-5.388116c-0.817176,-0.349269 -2.293755,1.086142 -3.790562,3.897333c-1.496807,2.798413 -2.949114,6.998161 -3.653018,11.819779c-0.699858,4.825877 -0.509723,9.285448 0.121363,12.424611c0.631086,3.151941 1.62626,4.983474 2.504117,4.902546m180.175093,122.900147c0.873812,-0.153338 1.508943,-1.490783 1.597942,-3.607695c0.093045,-2.104134 -0.42477,-4.974956 -1.731441,-7.820221c-1.310717,-2.849525 -3.131158,-5.060143 -4.761464,-6.295363c-1.634351,-1.247998 -3.030023,-1.558933 -3.689427,-0.937064c-0.675586,0.638907 -0.538041,2.044502 0.008091,3.833442c0.554223,1.78894 1.488716,3.98252 2.580981,6.354995c1.092264,2.385253 2.14812,4.514943 3.139249,6.082394c0.995174,1.558933 1.957985,2.555628 2.856069,2.389512m-34.102924,-30.931617c0.311498,-0.82632 -1.779987,-2.670631 -5.805183,-4.114561l-1.581761,-0.523904c-0.554223,-0.161856 -1.136764,-0.293897 -1.735487,-0.438716c-1.209582,-0.310935 -2.500072,-0.498347 -3.867425,-0.711316a71.300598,75.07157 0 0 0 -8.790706,-0.494088c-3.078568,0.017038 -5.954864,0.149078 -8.552026,0.298157c-2.589071,0.144819 -4.903054,0.310935 -6.848903,0.447235c-3.887652,0.298157 -6.399861,0.583535 -6.589996,1.537636c-0.177999,0.885951 2.14812,2.312843 6.225908,3.271204c2.034848,0.485569 4.474239,0.82206 7.1604,1.026511c2.682116,0.191672 5.611003,0.255563 8.624844,0.234266l8.374028,-0.051113c1.258127,0.029816 2.475799,0 3.592336,0.046853l1.630306,0.029816l1.496807,0.063891c3.822926,0.1363 6.335134,0.302416 6.666859,-0.621869m-77.287825,-9.178964c-0.093045,-0.945582 -1.553443,-1.618564 -3.742017,-2.159506c-2.196665,-0.536682 -5.133643,-0.979657 -8.365937,-1.422633c-3.232294,-0.451494 -6.177362,-0.809282 -8.434709,-0.881692c-2.24521,-0.072409 -3.822926,0.187413 -4.14656,1.077623c-0.315543,0.864654 0.720085,2.223396 2.823706,3.535285c2.091484,1.311889 5.267142,2.521553 8.912069,3.02416c3.648972,0.498347 7.014765,0.187413 9.357066,-0.511126c2.354437,-0.707057 3.689427,-1.737827 3.596382,-2.662112m-65.317416,63.106972c0.529951,-0.779467 0.004045,-2.185062 -0.962811,-3.948445c-0.974947,-1.767643 -2.358482,-3.939926 -3.814835,-6.376292c-1.448262,-2.440625 -2.702343,-4.698096 -3.790562,-6.38907c-1.088219,-1.686714 -2.063166,-2.802672 -2.96125,-2.640816c-0.869766,0.149078 -1.496807,1.635602 -1.444216,4.016595c0.020227,1.184108 0.242725,2.568406 0.67154,4.05493c0.444997,1.473745 1.108446,3.045457 2.00653,4.570315c0.91022,1.51208 1.966076,2.828228 3.038113,3.893073c1.084174,1.056326 2.172393,1.878387 3.179703,2.415068c2.014621,1.094661 3.568064,1.158551 4.077787,0.404641m-15.348339,-51.504421c-0.853584,0.259822 -2.071257,-1.013732 -3.252521,-3.373429c-1.181264,-2.351178 -2.297801,-5.788497 -2.936978,-9.711386c-0.635132,-3.927148 -0.66345,-7.560399 -0.291271,-10.188437c0.372179,-2.632297 1.120582,-4.25938 2.010576,-4.301974c1.81235,-0.076669 3.479065,5.963132 4.692692,13.344637c1.185309,7.394283 1.512989,13.672609 -0.222498,14.230588"/>
  </g>
 </g>
</svg>